<svg xmlns="http://www.w3.org/2000/svg" width="512" height="512" viewBox="0 0 512 512" version="1.1"><path d="M 326.500 43.584 C 288.490 46.404, 281.269 47.706, 268.417 54.053 C 258.472 58.965, 249.287 66.429, 241.858 75.635 C 238.755 79.480, 230.329 89.268, 223.135 97.386 C 209.976 112.234, 208.018 115.490, 208.006 122.554 C 207.996 127.644, 212.610 135.488, 218.058 139.642 C 220.776 141.715, 223 143.606, 223 143.844 C 223 144.083, 218.162 149.283, 212.250 155.400 C 190.406 178.002, 158.391 214.903, 156.275 219.917 C 152.359 229.199, 155.842 237.642, 167.266 246.555 C 171.245 249.659, 174.627 252.535, 174.782 252.944 C 175.419 254.632, 167.908 263.844, 161.975 268.650 C 158.479 271.483, 155.312 274.633, 154.938 275.650 C 154.564 276.668, 154.618 281.775, 155.058 287 C 156.441 303.419, 153.729 324.108, 148.056 340.407 C 141.493 359.262, 151.822 373.917, 171.716 373.978 L 178.933 374 168.174 395.750 C 162.257 407.713, 155.008 423.636, 152.065 431.135 L 146.714 444.770 139.807 445.450 C 131.250 446.294, 100.919 452.438, 98.242 453.870 C 93.237 456.549, 93.368 464.229, 98.476 467.576 C 100.911 469.172, 101.662 469.122, 113.271 466.595 C 139.687 460.844, 149.993 459.824, 187.235 459.273 C 225.100 458.714, 234.857 459.236, 278 464.137 C 309.752 467.743, 345.860 468.956, 364.607 467.046 C 386.481 464.817, 412.717 459.076, 415.603 455.886 C 418.281 452.928, 417.962 447.197, 414.986 444.787 C 412.047 442.408, 409.533 442.583, 391.207 446.446 C 383.896 447.987, 377.645 448.979, 377.317 448.650 C 376.988 448.321, 376.345 439.875, 375.887 429.881 C 373.828 384.886, 366.215 356.503, 350.804 336.353 L 346.102 330.205 351.301 326.336 C 357.047 322.060, 362.389 314.832, 363.982 309.177 C 364.552 307.155, 366.166 297.400, 367.567 287.500 C 369.815 271.620, 370.374 269.329, 372.308 268.046 C 377.151 264.834, 382.996 257.794, 385.938 251.630 C 391.802 239.343, 396.296 218.351, 407.479 151 C 416.285 97.963, 418.303 82.091, 417.081 75.478 C 415.674 67.872, 411.601 60.725, 405.590 55.321 C 394.565 45.408, 388.649 43.990, 356.500 43.553 C 342.750 43.366, 329.250 43.380, 326.500 43.584 M 329.500 59.584 C 281.926 62.424, 270.270 66.588, 253.930 86.586 C 250.451 90.844, 242.920 99.541, 237.194 105.914 C 224.810 119.697, 223.566 121.424, 224.670 123.308 C 225.127 124.087, 228.258 127.007, 231.629 129.798 C 237.415 134.587, 238.227 134.935, 246.129 136.014 C 250.733 136.642, 257.200 138.057, 260.500 139.158 C 273.923 143.638, 293.297 156.350, 294.597 161.532 C 295.874 166.618, 291.523 172, 286.133 172 C 285.158 172, 281.467 169.754, 277.930 167.009 C 274.394 164.264, 271.222 162.014, 270.882 162.009 C 270.543 162.004, 267.317 163.977, 263.715 166.392 C 253.986 172.916, 248.549 174.477, 235.500 174.489 C 229.450 174.495, 222.897 174.275, 220.937 174 C 217.474 173.514, 217.080 173.822, 206.884 185 C 189.072 204.528, 171 225.902, 171 227.442 C 171 229.967, 183.037 238.790, 194.289 244.513 C 200.222 247.531, 205.779 250, 206.638 250 C 211.125 250, 214.734 246.734, 220.194 237.732 C 226.069 228.047, 236.205 208.270, 237.482 204 C 239.558 197.061, 246.808 194.717, 251.545 199.455 C 254.394 202.303, 254.562 204.156, 252.500 210 C 250.205 216.504, 239.794 236.737, 233.541 246.846 C 226.896 257.588, 221.546 262.495, 214.125 264.652 C 207.717 266.515, 202.167 265.988, 194.797 262.817 C 189.843 260.686, 189.612 260.672, 188.576 262.447 C 187.984 263.461, 186 266.303, 184.167 268.762 C 182.334 271.222, 181.209 273.560, 181.667 273.959 C 182.125 274.358, 185.650 275.495, 189.500 276.487 C 200.395 279.295, 211.277 283.831, 213.750 286.596 C 216.400 289.558, 216.618 292.672, 214.399 295.841 C 211.463 300.032, 208.757 300.244, 200.250 296.949 C 193.595 294.372, 185.355 291.991, 174.903 289.626 L 172.307 289.039 171.667 301.269 C 170.910 315.746, 168.970 327.446, 165.405 339.044 C 161.410 352.036, 161.343 353.338, 164.542 355.855 C 166.969 357.764, 168.526 358, 178.674 358 C 214.313 358, 261.844 346.390, 318.921 323.742 C 339.553 315.555, 344.608 312.592, 347.507 306.986 C 348.714 304.651, 352.979 279.664, 352.995 274.833 C 352.998 273.645, 351.590 272.863, 348.091 272.113 C 340.638 270.515, 332.267 266.146, 328.932 262.115 C 325.037 257.405, 323 250.347, 323.001 241.568 C 323.004 228.090, 326.415 213.527, 341.989 160.500 C 349.375 135.354, 351.568 129.075, 353.603 127.250 C 356.557 124.600, 359.672 124.382, 362.841 126.601 C 367.711 130.012, 367.598 130.794, 357.028 166.749 C 339.987 224.715, 336.904 239.688, 340.110 248.887 C 341.631 253.250, 347.720 256.286, 355.170 256.395 C 366.251 256.558, 371.645 248.951, 377.434 225 C 382.143 205.515, 393.922 137.509, 399.469 97.780 C 402.413 76.688, 401.909 73.764, 394.112 66.720 C 387.788 61.007, 382.784 60.033, 357.531 59.602 C 345.414 59.395, 332.800 59.387, 329.500 59.584 M 234.687 154.805 C 233.209 156.347, 232 157.984, 232 158.442 C 232 159.784, 244.121 158.384, 248.750 156.507 C 251.088 155.559, 253 154.441, 253 154.022 C 253 153.086, 246.904 152.026, 241.437 152.011 C 238.282 152.002, 236.773 152.627, 234.687 154.805 M 317.500 341.665 C 286.510 354.245, 241.475 367.090, 214.446 371.057 C 206.226 372.263, 198.972 373.392, 198.327 373.564 C 196.175 374.140, 168.933 429.997, 165.587 440.693 L 164.901 442.886 196.701 442.902 C 229.794 442.919, 243.172 443.782, 285.500 448.632 C 308.115 451.223, 349.285 452.920, 356.536 451.559 L 360.307 450.852 359.668 431.676 C 358.180 387, 350.185 359.207, 333.657 341.250 C 331.506 338.913, 329.465 337.045, 329.123 337.100 C 328.780 337.154, 323.550 339.209, 317.500 341.665" stroke="none" fill="#1d9aef" fill-rule="evenodd"/></svg>